<?xml version="1.0" encoding="UTF-8" standalone="no"?>
<!-- Created with Inkscape (http://www.inkscape.org/) -->

<svg
   xmlns:dc="http://purl.org/dc/elements/1.1/"
   xmlns:cc="http://creativecommons.org/ns#"
   xmlns:rdf="http://www.w3.org/1999/02/22-rdf-syntax-ns#"
   xmlns:svg="http://www.w3.org/2000/svg"
   xmlns="http://www.w3.org/2000/svg"
   xmlns:sodipodi="http://sodipodi.sourceforge.net/DTD/sodipodi-0.dtd"
   xmlns:inkscape="http://www.inkscape.org/namespaces/inkscape"
   width="124.367mm"
   height="172.95108mm"
   viewBox="0 0 440.67046 612.81879"
   id="svg4367"
   version="1.1"
   inkscape:version="0.91 r13725"
   sodipodi:docname="hobo.svg">
  <defs
     id="defs4369" />
  <sodipodi:namedview
     id="base"
     pagecolor="#ffffff"
     bordercolor="#666666"
     borderopacity="1.0"
     inkscape:pageopacity="0.0"
     inkscape:pageshadow="2"
     inkscape:zoom="0.53074441"
     inkscape:cx="60.615098"
     inkscape:cy="200.72818"
     inkscape:document-units="px"
     inkscape:current-layer="layer1"
     showgrid="false"
     fit-margin-top="0"
     fit-margin-left="0"
     fit-margin-right="0"
     fit-margin-bottom="0"
     inkscape:window-width="1366"
     inkscape:window-height="714"
     inkscape:window-x="0"
     inkscape:window-y="0"
     inkscape:window-maximized="1" />
  <metadata
     id="metadata4372">
    <rdf:RDF>
      <cc:Work
         rdf:about="">
        <dc:format>image/svg+xml</dc:format>
        <dc:type
           rdf:resource="http://purl.org/dc/dcmitype/StillImage" />
        <dc:title></dc:title>
      </cc:Work>
    </rdf:RDF>
  </metadata>
  <g
     inkscape:label="Layer 1"
     inkscape:groupmode="layer"
     id="layer1"
     transform="translate(-141.35584,-192.51583)">
    <path
       style="fill:#000000"
       d="m 386.71414,800.796 c -2.3521,-2.4962 -4.7941,-6.7265 -5.4263,-9.4009 -1.5581,-6.5879 -3.7326,-6.1144 -8.1141,1.7669 -4.1643,7.4907 -8.1254,10.2924 -14.5518,10.2924 -4.9277,0 -11.7604,-7.794 -11.7604,-13.4149 0,-4.7644 -2.1298,-4.4056 -7.0864,1.1937 -2.3042,2.603 -6.1537,4.7005 -8.6269,4.7005 -5.6756,0 -14.4039,-8.7582 -14.4039,-14.4532 0,-5.34 -2.4744,-5.5138 -8.3746,-0.5883 -5.3411,4.4588 -15.8067,4.9529 -21.1278,0.9973 -2.0445,-1.5196 -5.4079,-6.5803 -7.4742,-11.246 l -3.7572,-8.4831 -8.0433,1.1701 c -7.7557,1.1281 -8.3115,0.8727 -15.5564,-7.152 -4.2203,-4.6745 -8.4853,-11.7654 -9.7313,-16.1785 -2.759,-9.7738 -7.7651,-13.6331 -17.6832,-13.6331 -4.232,0 -9.2283,-0.8713 -11.103,-1.936 -4.7167,-2.679 -8.7598,-11.6512 -8.7598,-19.4391 0,-10.5332 -1.3978,-12.4683 -9.0066,-12.4683 -9.0251,0 -12.0397,-4.9383 -13.3276,-21.8332 -1.4871,-19.5077 -3.2978,-23.2912 -11.1469,-23.2912 -14.6397,0 -18.3237,-11.2544 -9.9405,-30.3663 5.2835,-12.045 5.4999,-14.7582 1.1778,-14.7582 -4.7084,0 -9.1327,-5.9952 -9.1327,-12.3753 0,-3.2594 2.5058,-9.2388 6.1535,-14.6839 3.3843,-5.0519 5.7291,-9.9142 5.2103,-10.805 -0.5189,-0.8908 -4.7587,-1.6197 -9.4221,-1.6197 -10.0154,0 -14.3429,-3.8687 -14.3429,-12.8221 0,-4.7411 2.3092,-8.5197 11.3996,-18.6538 9.752,-10.8718 11.8643,-12.4076 14.6157,-10.6267 5.3984,3.4942 4.5633,7.0755 -3.8128,16.3533 -4.4162,4.8915 -8.0296,9.6071 -8.0296,10.479 0,0.8719 4.0704,2.0969 9.0456,2.7222 11.3599,1.4279 13.9869,3.7411 13.9786,12.3083 0,6.2759 -2.0983,10.9891 -9.9124,22.332 -2.7735,4.0258 -2.7345,4.2304 0.8041,4.2304 9.5587,0 11.7203,18.1386 4.0284,33.8006 -5.0937,10.3714 -4.8409,11.3239 3.0061,11.3239 10.1895,0 18.0076,10.3329 18.0443,23.8487 0.018,3.9459 0.5136,10.3472 1.1175,14.225 1.0471,6.7234 1.4146,7.0507 7.912,7.0507 8.4493,0 11.9357,4.8652 13.7708,19.2155 1.7206,13.456 2.6753,14.6278 11.9189,14.6278 12.6408,0 17.9759,4.0935 24.0779,18.4745 7.4467,17.5504 8.7921,18.8448 18.3929,17.6963 6.6865,-0.7999 8.7087,-0.2291 12.5052,3.5297 2.4909,2.4662 5.7327,7.6566 7.2042,11.5345 3.0675,8.0842 4.5144,8.4636 12.5203,3.2834 3.1903,-2.0644 8.209,-3.7534 11.1529,-3.7534 6.2424,0 14.0495,7.2661 14.0495,13.0759 0,5.1104 1.0863,4.8739 8.2429,-1.7948 10.2012,-9.5058 18.5244,-6.3728 21.0222,7.9133 l 1.219,6.9732 6.9442,-9.3234 c 5.4551,-7.3241 8.0413,-9.3234 12.0603,-9.3234 5.3625,0 12.9293,7.5329 15.2028,15.1348 1.7209,5.7548 4.5876,3.6692 11.4875,-8.3578 7.306,-12.7349 11.408,-15.8606 16.4388,-12.5263 1.9066,1.2637 4.0145,1.5936 4.6841,0.7331 0.6697,-0.8605 3.4502,-4.7982 6.1791,-8.7505 6.3743,-9.232 9.1261,-10.2242 14.2338,-5.1317 2.2836,2.2768 4.5472,3.4415 5.0303,2.5882 0.4829,-0.8534 3.4352,-6.6281 6.5604,-12.8327 8.4855,-16.8468 11.8512,-20.0646 20.3603,-19.4658 6.173,0.4343 7.0611,0.011 6.6708,-3.1779 -0.2477,-2.0233 -0.939,-7.5392 -1.5361,-12.2574 -1.0092,-7.9716 -0.6856,-8.9359 4.5721,-13.6313 4.9296,-4.4022 7.2132,-5.0529 17.7339,-5.0529 13.3086,0 15.4625,-1.7878 11.4406,-9.4957 -1.3219,-2.5331 -2.4317,-9.0004 -2.4662,-14.3718 -0.089,-13.8978 4.5277,-19.1989 17.9978,-20.6641 5.5604,-0.6048 10.469,-2.1497 10.9362,-3.4419 0.4662,-1.2895 -0.2518,-5.618 -1.5955,-9.6187 -5.2817,-15.7249 -1.1759,-27.3502 10.4791,-29.6707 10.3177,-2.0543 11.0481,-5.1472 3.8412,-16.2663 -3.4872,-5.3803 -6.8153,-11.791 -7.396,-14.2462 -1.466,-6.1993 3.3504,-13.2513 11.6599,-17.0719 8.6552,-3.9795 9.7167,-8.8327 5.2429,-23.9735 -4.1018,-13.8824 -4.2651,-20.4502 -0.5893,-23.6879 4.7977,-4.2257 8.0411,0.2698 12.6877,17.5852 3.3172,12.3608 4.0976,18.5037 3.1779,25.0123 -1.0994,7.7809 -2.0754,9.1925 -9.9452,14.3845 -4.7994,3.1663 -8.7262,6.2764 -8.7262,6.9112 0,0.6348 2.7902,5.5514 6.2006,10.9259 10.0427,15.8264 7.6916,25.7342 -7.5263,31.719 -4.63,1.8208 -8.6314,3.4573 -8.892,3.6366 -0.2608,0.1794 0.7854,5.543 2.3245,11.919 3.0435,12.608 2.3576,17.7206 -3.2488,24.2215 -2.5865,2.999 -5.6553,4.2304 -10.5426,4.2304 -13.3644,0 -16.5779,5.3225 -10.8916,18.0402 6.8017,15.2117 -1.9227,27.0629 -19.9596,27.113 -14.6628,0.041 -16.1081,1.3924 -12.4269,11.6224 1.6262,4.5191 2.9566,9.9607 2.9566,12.0926 0,6.5337 -6.4254,10.9449 -16.4589,11.2996 -9.0613,0.3204 -9.0652,0.3232 -14.0487,10.3712 -2.7417,5.528 -7.3092,12.8694 -10.1501,16.3144 -4.4249,5.3656 -6.1539,6.1877 -12.0617,5.735 -6.2055,-0.4754 -7.7173,0.3807 -15.0886,8.5453 -6.6623,7.3794 -9.0495,8.8997 -12.7845,8.1419 -3.6735,-0.7452 -5.0969,0.1033 -7.1123,4.2392 -3.5615,7.3093 -12.7617,15.0198 -17.9219,15.0198 -2.4054,0 -6.298,-2.0424 -8.6499,-4.5386 z m -12.0599,-83.1635 c -0.6289,-0.6674 -11.629,-1.0791 -24.4445,-0.9149 -15.1846,0.1947 -24.1459,-0.4451 -25.726,-1.8368 -1.482,-1.3054 -2.4246,-5.9303 -2.4246,-11.8964 l 0,-9.7608 -10.634,0.8164 c -6.9158,0.5309 -11.5617,-7e-4 -13.287,-1.5204 -3.3763,-2.9738 -3.382,-13.0619 -0.02,-34.7795 1.4408,-9.3069 2.6336,-19.7807 2.6506,-23.2752 l 0.03,-6.3534 -10.3645,1.2445 c -8.1581,0.9795 -10.8403,0.6361 -12.5995,-1.6134 -3.0236,-3.8667 -1.1486,-8.2029 4.5394,-10.4981 2.8215,-1.1383 37.1519,-2.142 85.9691,-2.5134 68.9663,-0.5247 81.5916,-0.2095 83.3826,2.0811 4.1932,5.362 -0.6255,8.916 -12.9264,9.5341 -6.2322,0.3131 -11.9319,1.2045 -12.6663,1.9808 -2.3367,2.4709 -6.8474,23.2668 -8.315,38.3354 -0.7801,8.0096 -2.4136,15.8359 -3.6304,17.3917 -1.4158,1.8107 -5.3219,2.8288 -10.853,2.8288 l -8.6411,0 0,13.7253 c 0,8.1683 -0.8607,14.6388 -2.126,15.9816 -2.2184,2.3544 -15.9268,3.1522 -17.9145,1.0426 z m 10.9626,-73.9938 c 3.1057,-13.7948 2.7726,-15.0415 -4.0195,-15.0415 -6.6274,0 -8.1618,2.2643 -8.1618,12.0439 0,6.7298 -4.6033,41.0004 -7.0953,52.8225 -0.8719,4.1364 -1.0273,8.0987 -0.3452,8.8052 0.6819,0.7065 4.4288,1.5525 8.3263,1.8802 l 7.0865,0.5957 1.1522,-26.3226 c 0.6337,-14.4774 2.0093,-30.13 3.0568,-34.7834 z m -33.4405,58.1185 c 0,-1.1262 1.5911,-11.9138 3.5358,-23.9724 1.9445,-12.0587 4.1844,-28.4821 4.9773,-36.4964 l 1.4418,-14.5714 -9.4066,0 c -8.0212,0 -9.4063,0.5199 -9.4063,3.5308 0,1.9419 -1.3372,6.8069 -2.9715,10.8111 -1.7367,4.2553 -3.12,13.1393 -3.3292,21.3816 -0.1966,7.7558 -0.9684,20.2355 -1.7143,27.7328 l -1.3569,13.6313 9.1151,0 c 5.392,0 9.1148,-0.8362 9.1148,-2.0474 z m -34.3071,-22.3693 c 1.155,-0.015 2.8931,-6.4304 4.0842,-15.0753 1.1403,-8.2773 3.5807,-19.6993 5.4232,-25.3825 l 3.3497,-10.3329 -8.7627,0 -8.7625,0 0,9.3084 c 0,5.1196 -0.7413,13.3689 -1.6472,18.3318 -0.9059,4.9629 -2.127,12.725 -2.7138,17.2491 -1.0193,7.8629 -0.8883,8.1751 2.9759,7.0764 2.2234,-0.6322 4.9473,-1.1609 6.0532,-1.175 z m 87.7175,-19.0764 c 0.6316,-6.6909 2.0223,-15.5063 3.0906,-19.5896 2.8356,-10.8401 2.5163,-12.1247 -3.0141,-12.1247 -4.9324,0 -4.9957,0.1523 -7.2309,17.3917 -1.2403,9.5655 -2.657,19.2194 -3.1483,21.4532 -0.63,2.8637 0.065,4.3207 2.3589,4.9407 5.884,1.5907 6.7834,0.2239 7.9438,-12.0713 z m -63.5608,-83.8012 c -5.9207,-1.2137 -11.1088,-10.2152 -11.1088,-19.2737 0,-8.4291 2.5697,-14.7438 11.7877,-28.9655 3.2605,-5.0306 5.9283,-11.4016 5.9283,-14.1578 0,-5.8017 4.4465,-13.3687 7.8558,-13.3687 8.8125,0 6.7931,20.9617 -3.3819,35.1042 -3.4444,4.7876 -7.2112,12.0645 -8.3703,16.1709 -1.8917,6.7009 -1.7548,7.7456 1.3372,10.1928 2.3413,1.8532 5.4315,2.3293 9.6456,1.4863 10.7462,-2.1498 12.7704,-1.9373 14.8266,1.5561 1.6619,2.8237 1.1559,4.1864 -2.9672,7.9908 -4.9137,4.5341 -13.8145,5.6712 -25.553,3.2646 z m -42.1917,-109.2177 c -19.5066,-11.6126 -26.034,-22.5823 -27.0061,-45.3845 -1.3416,-31.4718 6.1699,-52.6491 25.319,-71.3821 9.0674,-8.8702 19.4076,-12.3305 32.1177,-10.7483 7.0288,0.8751 9.6124,0.4661 11.3864,-1.8027 3.4079,-4.3578 10.9738,-8.0777 28.7904,-14.1551 26.8262,-9.1505 33.6641,-7.3237 51.6826,13.8079 13.5987,15.948 16.9089,27.5601 18.1266,63.5862 l 0.9252,27.3818 -5.7247,11.6741 c -5.0282,10.2533 -6.8738,12.2318 -15.1647,16.2566 -12.8833,6.2541 -38.336,8.4674 -46.4108,4.0358 -3.0684,-1.684 -6.3289,-4.4838 -7.2453,-6.2219 -1.4967,-2.8382 -2.2532,-2.636 -7.427,1.9842 -12.1878,10.884 -21.5095,14.3439 -38.4143,14.2583 -11.2778,-0.057 -17.045,-0.9627 -20.955,-3.2903 z m 40.4543,-13.7765 c 24.7601,-13.2266 30.7589,-24.2122 29.1221,-53.3304 -1.4728,-26.2013 -10.088,-44.0179 -21.2147,-43.8745 -3.1699,0.041 -9.6184,-0.8532 -14.3301,-1.9867 -14.0341,-3.3763 -21.7186,-0.5075 -32.4308,12.1069 -10.5655,12.4418 -14.486,23.2661 -16.0174,44.2227 -2.2786,31.1823 9.6745,46.5971 36.2691,46.7727 7.9318,0.052 13.2927,-1.0746 18.6018,-3.9107 z m -28.5047,-45.2765 c -1.1692,-1.241 -2.1259,-5.9329 -2.1259,-10.4265 0,-6.1677 1.0658,-9.3014 4.3484,-12.7853 8.3462,-8.8577 15.1392,-5.0012 15.1392,8.5946 0,6.66 -0.9604,9.6547 -4.1001,12.7852 -4.5426,4.529 -10.0087,5.2841 -13.2616,1.832 z m 101.6931,36.1445 c 5.6025,-2.5807 8.1921,-5.3755 11.3058,-12.202 3.7285,-8.1743 3.9657,-10.6115 3.0879,-31.722 -1.2394,-29.8018 -5.4528,-43.3175 -17.8352,-57.2126 -4.8645,-5.4586 -10.5781,-10.3866 -12.6969,-10.951 -4.1728,-1.1115 -21.0892,3.0306 -31.8316,7.7942 l -6.6852,2.9644 4.3887,5.0476 c 14.6192,16.814 19.1462,31.1986 19.0054,60.3882 -0.069,14.1967 -1.2419,20.5321 -5.9856,32.3155 -0.7373,1.8318 -0.018,4.3342 1.8108,6.2717 2.556,2.7126 5.0305,3.02 15.6034,1.9387 6.9112,-0.7069 15.8358,-2.7916 19.8325,-4.6327 z m -20.1995,-53.0662 c -3.7333,-3.9622 -2.3897,-12.0878 3.0139,-18.227 2.8269,-3.2117 6.4506,-5.8394 8.0528,-5.8394 4.4019,0 11.6098,8.617 11.6098,13.8795 0,9.1545 -16.616,16.6188 -22.6765,10.1869 z m -145.3665,-24.6753 c -3.2544,-4.1618 0.6835,-23.5318 6.556,-32.247 6.9252,-10.2774 28.997,-29.7865 39.0289,-34.4972 4.5044,-2.1152 13.9471,-5.6108 20.9837,-7.76811 l 12.7938,-3.9223 -3.6529,-7.0129 c -8.8413,-16.9739 -23.3509,-27.1427 -42.3803,-29.7014 -13.2628,-1.7832 -19.7063,-8.2572 -13.5847,-13.6491 3.7066,-3.2647 27.2054,1.2469 38.4593,7.3839 11.8598,6.4674 16.3395,10.187 21.8286,18.1253 l 4.2131,6.093 2.195,-16.434 c 1.2073,-9.0388 3.2916,-25.1947 4.6316,-35.9021 1.34,-10.7074 3.3601,-20.6488 4.4887,-22.0922 2.6743,-3.4198 5.9471,-3.33 8.7386,0.2398 2.2696,2.9023 1.5187,12.6663 -3.875,50.3741 -1.0082,7.0476 -1.4722,13.1969 -1.0312,13.6649 0.441,0.4679 3.4454,-4.4133 6.6764,-10.8471 6.5898,-13.1213 17.6916,-26.7887 25.0329,-30.8177 6.4892,-3.5614 16.4483,-3.406 19.3478,0.3019 3.5661,4.5603 0.06,8.5392 -9.8863,11.2195 -9.6617,2.6034 -13.1709,6.328 -21.3236,22.6322 -10.3556,20.7092 -12.9959,26.1718 -13.0973,27.0968 -0.057,0.517 11.6554,0.9769 26.0266,1.0218 37.6476,0.1179 49.9985,4.633 66.2403,24.21561 5.9212,7.139 7.0898,9.6441 5.6426,12.0952 -3.4104,5.7762 -8.4163,4.5942 -14.485,-3.4202 -10.772,-14.2258 -27.6492,-19.824 -59.614,-19.7739 -19.5136,0.031 -23.0776,0.6209 -43.4042,7.1893 -12.1798,3.9359 -25.7324,8.5105 -30.1172,10.1659 -23.17,8.7475 -44.29,31.6102 -44.29,47.9447 0,9.5837 -7.2627,14.5611 -12.1422,8.3213 z"
       id="path4045"
       inkscape:connector-curvature="0" />
  </g>
</svg>
